<svg xmlns="http://www.w3.org/2000/svg" xmlns:svgjs="http://svgjs.com/svgjs" xmlns:xlink="http://www.w3.org/1999/xlink" width="288" height="288"><svg xmlns="http://www.w3.org/2000/svg" width="288" height="288" enable-background="new 0 0 634.998 634.998" viewBox="0 0 634.998 634.998"><path fill="#7aca3a" d="M616.956,254.889L390.572,6.68c-8.975-8.907-23.524-8.907-32.499,0c-5.167,5.122-7.003,12.057-6.232,18.743v133.668
				c-187.947,0-340.335,152.366-340.335,340.335c0,48.205,10.153,94.008,28.238,135.572
				c26.856-141.781,162.133-249.455,311.711-249.455c0,13.395,0,135.98,0,135.98c-0.771,6.686,1.474,11.014,6.618,16.158
				c9.927,9.926,25.338,5.824,33.745-1.359l225.138-246.849c4.782-4.759,6.821-11.06,6.505-17.292
				C623.777,265.949,621.738,259.648,616.956,254.889z" class="color000 svgShape"/></svg></svg>